<svg width="1223" height="499" viewBox="0 0 1223 499" fill="white" xmlns="http://www.w3.org/2000/svg">
    <mask id="mask0_1951_3" style="mask-type:luminance" maskUnits="userSpaceOnUse" x="0" y="0" width="1223" height="499">
    <path d="M1222.83 0H0V498.2H1222.83V0Z" fill="white"/>
    </mask>
    <g mask="url(#mask0_1951_3)">
    <mask id="mask1_1951_3" style="mask-type:luminance" maskUnits="userSpaceOnUse" x="0" y="0" width="1223" height="499">
    <path d="M1222.83 0H0V498.2H1222.83V0Z" fill="white"/>
    </mask>
    <g mask="url(#mask1_1951_3)">
    <mask id="mask2_1951_3" style="mask-type:luminance" maskUnits="userSpaceOnUse" x="0" y="0" width="1223" height="499">
    <path d="M1222.83 0.00390625H0V498.194H1222.83V0.00390625Z" fill="white"/>
    </mask>
    <g mask="url(#mask2_1951_3)">
    <path d="M359.991 10.3867V229.37L256.831 10.3867H132.867L-0.00390625 292.423H114.368L129.405 256.785H260.313L275.349 292.423H354.738H613.575V215.642H465.125V10.3867H359.991ZM192.448 110.448H197.269L230.321 186.666H159.397L192.448 110.448Z" fill="#E30613"/>
    <path fill-rule="evenodd" clip-rule="evenodd" d="M502.387 116.922H613.589V175.699H502.387V116.922Z" fill="#E30613"/>
    <mask id="mask3_1951_3" style="mask-type:luminance" maskUnits="userSpaceOnUse" x="0" y="0" width="1218" height="493">
    <path d="M0 492.769H1217.84V0.00390625H0V492.769Z" fill="white"/>
    </mask>
    <g mask="url(#mask3_1951_3)">
    <path fill-rule="evenodd" clip-rule="evenodd" d="M1060.02 212.287C1025.08 212.287 996.741 183.946 996.741 149.012C996.741 114.068 1025.08 85.7267 1060.02 85.7267C1094.96 85.7267 1123.3 114.068 1123.3 149.012C1123.3 183.946 1094.96 212.287 1060.02 212.287ZM1060.02 0.0078125C972.878 0.0078125 902.206 66.7251 902.206 149.012C902.206 176.679 910.207 202.575 924.126 224.777L838.779 141.524L838.991 141.262L947.496 10.3843H889.082H824.88L754.258 100.491H748.542V10.3843H643.891V292.42H749.015V200.109H755.204L855.134 292.42H978.716L988.518 281.863C1009.97 292.189 1034.28 298.016 1060.02 298.016C1147.16 298.016 1217.84 231.279 1217.84 149.012C1217.84 66.7251 1147.16 0.0078125 1060.02 0.0078125Z" fill="#E30613"/>
    <path d="M1127.48 425.916V491.788H1200.76V475.987H1147.23V465.52H1197.69V451.007H1147.23V441.425H1200.36V425.916H1127.48ZM1047.88 425.916V491.788H1067.93V468.972H1115.03V453.865H1067.93V441.425H1117.5V425.916H1047.88ZM1010.16 491.788H1031.19V425.916H1010.16V491.788ZM935.21 425.916V491.788H1003.05V475H956.235V425.916H935.21ZM827.007 458.605V442.412H855.248C864.326 442.512 864.628 442.512 866.007 443.106C868.08 443.992 868.875 445.864 868.875 450.312C868.875 454.459 868.281 456.432 866.701 457.418C865.312 458.414 865.312 458.414 855.248 458.605H827.007ZM806.949 491.788H827.007V475.101H855.338C863.642 475.101 865.121 475.292 866.5 476.872C868.08 478.553 868.473 480.918 868.473 488.336V491.788H888.229V485.659C888.622 470.461 886.85 467.492 876.675 466.315C880.62 465.711 882.502 465.027 884.374 463.537C887.937 460.88 888.924 457.126 888.924 447.343C888.924 435.89 887.434 431.542 882.402 428.483C878.155 425.916 878.155 425.916 855.439 425.916H806.949V491.788ZM746.421 442.009C764.789 442.009 766.963 442.311 769.227 444.978C771.008 447.142 771.602 450.896 771.602 460.679C771.602 468.68 770.908 471.548 768.633 473.32C765.966 475.292 762.715 475.685 746.612 475.685C730.026 475.685 726.866 475.393 724.199 473.32C721.834 471.438 721.24 468.781 721.24 460.578C721.24 452.184 721.632 448.43 722.81 446.166C724.792 442.311 726.665 442.009 746.421 442.009ZM746.421 424.93C718.865 424.93 712.735 425.624 707.713 429.469C702.671 433.324 701.181 440.037 701.181 458.414C701.181 477.768 702.57 484.28 707.713 488.235C712.735 492.09 718.865 492.774 746.612 492.774C773.867 492.774 780.097 492.09 785.129 488.235C790.171 484.381 791.651 477.768 791.651 458.807C791.651 439.936 790.171 433.324 785.129 429.469C780.097 425.624 773.967 424.93 746.421 424.93ZM622.97 425.916V491.788H643.019V468.972H690.12V453.865H643.019V441.425H692.596V425.916H622.97ZM496.178 425.916L532.924 468.479V491.788H553.667V468.479L588.731 425.916H562.564L542.998 452.285L522.537 425.916H496.178ZM420.876 425.916V442.704H447.275V491.788H468.31V442.704H494.719V425.916H420.876ZM393.712 491.788H414.747V425.916H393.712V491.788ZM318.762 425.916V491.788H386.607V475H339.797V425.916H318.762ZM279.853 466.204H250.425L263.166 441.224H267.111L279.853 466.204ZM292.494 491.788H315.3L280.839 425.916H249.63L214.776 491.788H237.683L243.309 480.626H286.858L292.494 491.788ZM127.075 425.916V456.24C127.175 463.346 127.175 467.593 127.276 469.073C127.769 478.755 128.856 482.8 132.117 486.152C137.049 491.385 144.959 492.774 170.13 492.774C185.438 492.774 192.061 492.382 197.989 491.194C205.487 489.614 210.519 484.381 211.606 476.872C212.21 472.233 212.3 471.146 212.602 456.24V425.916H192.554V456.24C192.554 457.619 192.453 460.779 192.353 463.054C192.061 469.274 191.568 471.045 189.988 472.726C187.814 475.101 183.667 475.685 169.839 475.685C152.759 475.685 148.904 474.608 147.818 469.364C147.324 466.697 147.324 466.607 147.123 456.24V425.916H127.075ZM68.3185 449.819L60.3173 463.738L81.5533 475C78.1012 475.594 74.4377 475.685 64.5645 475.685C47.1832 475.685 44.1236 475.393 41.4565 473.32C39.1819 471.548 38.4976 468.68 38.4976 460.578C38.4976 452.285 38.8901 448.43 40.0777 446.166C42.151 442.311 43.9324 442.009 63.6788 442.009C82.0464 442.009 84.2204 442.311 86.4849 444.978C88.2663 447.142 88.8601 450.896 88.8601 460.679C88.8601 461.071 88.8601 461.766 88.7594 462.752L68.3185 449.819ZM116.809 478.453L108.315 474.105C108.707 470.854 108.908 465.52 108.908 459.3C108.908 439.936 107.519 433.414 102.387 429.469C97.3545 425.624 91.2252 424.93 63.6788 424.93C36.1324 424.93 30.0032 425.624 24.9709 429.469C19.9286 433.324 18.4492 439.936 18.4492 458.807C18.4492 477.768 19.9286 484.381 24.9709 488.235C30.0032 491.979 36.223 492.774 62.9944 492.774C91.7284 492.774 97.3545 492.09 102.789 487.833L109.21 492.482L116.809 478.453Z" fill="#9EA1A2"/>
    </g>
    </g>
    </g>
    </g>
</svg>  