<svg width="130" height="68" viewBox="0 0 130 68" fill="none" xmlns="http://www.w3.org/2000/svg">
<path d="M42.5302 31.9865V51.7536L33.2181 31.9865L22.0282 31.9865L10.0342 57.4453H20.3583L21.7156 54.2283H33.5324L34.8897 57.4453L42.056 57.4453H65.4207V50.5144H52.0204V31.9865H42.5302ZM27.4065 41.0188H27.8416L30.8251 47.8988H24.423L27.4065 41.0188Z" fill="#E30613"/>
<path d="M42.0302 31.9865V31.4865H42.5302H52.0204H52.5204V31.9865V50.0144H65.4207H65.9207V50.5144V57.4453V57.9453H65.4207H42.056L34.8897 57.9453H34.558L34.4291 57.6396L33.2007 54.7283H22.0474L20.819 57.6396L20.6901 57.9453H20.3583H10.0342H9.24591L9.58186 57.2322L21.5758 31.7734L21.711 31.4865H22.0282L33.2181 31.4865H33.5353L33.6704 31.7734L42.0302 49.5189V31.9865ZM30.0633 47.3988L27.624 41.7738L25.1848 47.3988H30.0633Z" stroke="black" stroke-opacity="0.2"/>
<path fill-rule="evenodd" clip-rule="evenodd" d="M55.3838 41.6033H65.4218V46.909H55.3838V41.6033Z" fill="#E30613"/>
<path d="M54.8838 41.6033V41.1033H55.3838H65.4218H65.9218V41.6033V46.909V47.409H65.4218H55.3838H54.8838V46.909V41.6033Z" stroke="black" stroke-opacity="0.2"/>
<path fill-rule="evenodd" clip-rule="evenodd" d="M105.721 50.2117C102.567 50.2117 100.008 47.6534 100.008 44.5C100.008 41.3457 102.567 38.7874 105.721 38.7874C108.874 38.7874 111.433 41.3457 111.433 44.5C111.433 47.6534 108.874 50.2117 105.721 50.2117ZM105.721 31.0497C97.8542 31.0497 91.4747 37.0721 91.4747 44.5C91.4747 46.9974 92.197 49.335 93.4534 51.3392L85.7494 43.8241L85.7684 43.8004L95.5629 31.9864H90.29H84.4947L78.1198 40.1201H77.6038V31.9864H68.1572V57.4452H77.6465V49.1124H78.2052L87.2257 57.4452L98.3811 57.4452L99.266 56.4921C101.203 57.4243 103.397 57.9503 105.721 57.9503C113.587 57.9503 119.967 51.926 119.967 44.5C119.967 37.0721 113.587 31.0497 105.721 31.0497Z" fill="#E30613"/>
<path d="M91.7537 48.9827C91.2489 47.5761 90.9747 46.0685 90.9747 44.5C90.9747 36.7693 97.6055 30.5497 105.721 30.5497C113.835 30.5497 120.467 36.7693 120.467 44.5C120.467 52.2289 113.835 58.4503 105.721 58.4503C103.454 58.4503 101.305 57.9655 99.3847 57.0991L98.7475 57.7854L98.5991 57.9452H98.3811L87.2257 57.9452H87.0301L86.8864 57.8124L78.1465 49.7389V57.4452V57.9452H77.6465H68.1572H67.6572V57.4452V31.9864V31.4864H68.1572H77.6038H78.1038V31.9864V39.33L84.1012 31.6779L84.2513 31.4864H84.4947H90.29H95.5629H96.6269L95.9479 32.3055L86.4283 43.7879L91.7537 48.9827ZM100.508 44.5C100.508 47.3772 102.843 49.7117 105.721 49.7117C108.598 49.7117 110.933 47.3772 110.933 44.5C110.933 41.6218 108.598 39.2874 105.721 39.2874C102.843 39.2874 100.508 41.6218 100.508 44.5Z" stroke="black" stroke-opacity="0.2"/>
<path d="M71.124 22.2743C71.124 22.8667 70.9805 23.3817 70.6934 23.8192C70.4062 24.2567 69.987 24.594 69.4355 24.8309C68.8887 25.0679 68.2233 25.1864 67.4395 25.1864C67.0931 25.1864 66.7536 25.1636 66.4209 25.118C66.0928 25.0725 65.776 25.0064 65.4707 24.9198C65.1699 24.8287 64.8828 24.717 64.6094 24.5848V22.6161C65.0833 22.8257 65.5755 23.0149 66.0859 23.1835C66.5964 23.3521 67.1022 23.4364 67.6035 23.4364C67.9499 23.4364 68.2279 23.3908 68.4375 23.2997C68.6517 23.2085 68.8066 23.0832 68.9023 22.9237C68.998 22.7642 69.0459 22.5819 69.0459 22.3768C69.0459 22.1262 68.9616 21.912 68.793 21.7343C68.6243 21.5565 68.3919 21.3902 68.0957 21.2352C67.804 21.0803 67.4736 20.9139 67.1045 20.7362C66.8721 20.6268 66.6191 20.4947 66.3457 20.3397C66.0723 20.1802 65.8125 19.9865 65.5664 19.7587C65.3203 19.5308 65.1175 19.2551 64.958 18.9315C64.8031 18.6034 64.7256 18.2115 64.7256 17.7557C64.7256 17.1587 64.8623 16.6483 65.1357 16.2245C65.4092 15.8007 65.7988 15.4771 66.3047 15.2538C66.8151 15.0259 67.4167 14.912 68.1094 14.912C68.6289 14.912 69.1234 14.9735 69.5928 15.0966C70.0667 15.215 70.5612 15.3882 71.0762 15.6161L70.3926 17.2635C69.9323 17.0767 69.5199 16.9331 69.1553 16.8329C68.7907 16.7281 68.4193 16.6757 68.041 16.6757C67.7767 16.6757 67.5511 16.719 67.3643 16.8055C67.1774 16.8876 67.0361 17.0061 66.9404 17.161C66.8447 17.3114 66.7969 17.4869 66.7969 17.6874C66.7969 17.9244 66.8652 18.1249 67.002 18.2889C67.1432 18.4484 67.3529 18.6034 67.6309 18.7538C67.9134 18.9042 68.2643 19.0796 68.6836 19.2802C69.194 19.5217 69.6292 19.7746 69.9893 20.0389C70.3538 20.2987 70.6341 20.6063 70.8301 20.9618C71.026 21.3127 71.124 21.7502 71.124 22.2743ZM78.6914 25.0497H72.9355V15.0555H78.6914V16.7919H75.0547V18.9862H78.4385V20.7225H75.0547V23.2997H78.6914V25.0497ZM83.6953 15.0555C84.6022 15.0555 85.3496 15.1649 85.9375 15.3837C86.5299 15.6024 86.9697 15.9328 87.2568 16.3749C87.5439 16.8169 87.6875 17.3752 87.6875 18.0497C87.6875 18.5054 87.6009 18.9042 87.4277 19.246C87.2546 19.5878 87.0267 19.8772 86.7441 20.1141C86.4616 20.3511 86.1562 20.5448 85.8281 20.6952L88.7676 25.0497H86.416L84.0303 21.2147H82.9023V25.0497H80.7832V15.0555H83.6953ZM83.5449 16.7919H82.9023V19.4921H83.5859C84.2878 19.4921 84.7891 19.3759 85.0898 19.1434C85.3952 18.9065 85.5479 18.5601 85.5479 18.1044C85.5479 17.6304 85.3838 17.2932 85.0557 17.0927C84.7321 16.8921 84.2285 16.7919 83.5449 16.7919ZM97.8662 15.0555L94.4688 25.0497H92.1582L88.7676 15.0555H90.9072L92.7871 21.0028C92.819 21.1031 92.8714 21.2922 92.9443 21.5702C93.0173 21.8436 93.0902 22.1353 93.1631 22.4452C93.2406 22.7505 93.293 23.0035 93.3203 23.204C93.3477 23.0035 93.3955 22.7505 93.4639 22.4452C93.5368 22.1399 93.6074 21.8505 93.6758 21.577C93.7487 21.299 93.8011 21.1076 93.833 21.0028L95.7266 15.0555H97.8662ZM99.1309 25.0497V15.0555H101.25V25.0497H99.1309ZM108.011 16.6757C107.605 16.6757 107.245 16.7554 106.931 16.9149C106.621 17.0699 106.359 17.2955 106.145 17.5917C105.935 17.8879 105.775 18.2456 105.666 18.6649C105.557 19.0842 105.502 19.5559 105.502 20.08C105.502 20.7863 105.589 21.3902 105.762 21.8915C105.939 22.3882 106.213 22.7688 106.582 23.0331C106.951 23.2928 107.427 23.4227 108.011 23.4227C108.416 23.4227 108.822 23.3772 109.228 23.286C109.638 23.1949 110.082 23.065 110.561 22.8964V24.6737C110.118 24.856 109.683 24.9859 109.255 25.0634C108.826 25.1454 108.346 25.1864 107.812 25.1864C106.783 25.1864 105.935 24.9745 105.27 24.5507C104.609 24.1223 104.119 23.5253 103.8 22.7596C103.481 21.9895 103.321 21.0917 103.321 20.0663C103.321 19.3098 103.424 18.6171 103.629 17.9882C103.834 17.3593 104.135 16.8147 104.531 16.3544C104.928 15.8941 105.418 15.5386 106.001 15.288C106.584 15.0373 107.254 14.912 108.011 14.912C108.507 14.912 109.004 14.9758 109.501 15.1034C110.002 15.2264 110.481 15.3973 110.937 15.6161L110.253 17.3387C109.879 17.161 109.503 17.0061 109.125 16.8739C108.747 16.7417 108.375 16.6757 108.011 16.6757ZM118.449 25.0497H112.693V15.0555H118.449V16.7919H114.812V18.9862H118.196V20.7225H114.812V23.2997H118.449V25.0497Z" fill="white"/>
</svg>
