<svg width="48" height="48" viewBox="0 0 48 48" fill="none" xmlns="http://www.w3.org/2000/svg">
<rect width="48" height="48" rx="2" fill="white" fill-opacity="0.08"/>
<path d="M24.0645 6C18.8305 6 14.5723 10.2582 14.5723 15.4922C14.5723 20.7262 18.8305 24.9844 24.0645 24.9844C29.2984 24.9844 33.5566 20.7262 33.5566 15.4922C33.5566 10.2582 29.2984 6 24.0645 6ZM35.8746 31.1856C33.2758 28.5469 29.8307 27.0938 26.1738 27.0938H21.9551C18.2983 27.0938 14.8531 28.5469 12.2543 31.1856C9.66832 33.8113 8.24414 37.2773 8.24414 40.9453C8.24414 41.5278 8.71636 42 9.29883 42H38.8301C39.4125 42 39.8848 41.5278 39.8848 40.9453C39.8848 37.2773 38.4606 33.8113 35.8746 31.1856Z" fill="#E9EBEC"/>
</svg>
